<svg width="127" height="58" viewBox="0 0 127 58" fill="none" xmlns="http://www.w3.org/2000/svg">
<path d="M11.7041 18.6187H17.1792L22.412 37.4473L26.9521 21.0255C27.1359 20.3056 27.5229 19.7247 28.1131 19.2813C28.7018 18.8396 29.3652 18.6187 30.1051 18.6187H31.9426C32.6809 18.6187 33.346 18.8396 33.9346 19.2813C34.5233 19.7231 34.9103 20.3039 35.0956 21.0255L39.6357 37.4473L44.8685 18.6187H50.3436L43.5514 42.3639C43.3433 43.0854 42.9449 43.6662 42.3562 44.108C41.7676 44.5497 41.1025 44.7706 40.3642 44.7706H38.9089C38.169 44.7706 37.5055 44.5497 36.9169 44.108C36.3282 43.6662 35.9412 43.0854 35.7558 42.3639L31.0092 25.3841L26.2968 42.3639C26.1114 43.0854 25.7244 43.6662 25.1357 44.108C24.5471 44.5497 23.882 44.7706 23.1438 44.7706H21.6884C20.9485 44.7706 20.2851 44.5497 19.6964 44.108C19.1078 43.6662 18.7094 43.0854 18.5012 42.3639L11.709 18.6187H11.7041Z" fill="#183960"/>
<path d="M82.0056 30.4725C83.9683 31.0075 85.4302 31.9024 86.3896 33.1574C87.3474 34.4123 87.8271 35.9126 87.8271 37.6551C87.8271 38.748 87.6417 39.7297 87.2726 40.6018C86.9034 41.4738 86.3717 42.2183 85.679 42.8334C84.9863 43.4503 84.1602 43.9264 83.2008 44.2634C82.2414 44.6005 81.173 44.769 79.9957 44.769H73.0994C70.2586 44.769 68.0682 44.0605 66.5332 42.642C64.9965 41.2251 64.229 39.2127 64.229 36.6096V35.1796H69.4277V36.5392C69.4277 37.6551 69.7399 38.5157 70.3627 39.1194C70.9871 39.7248 71.8636 40.0258 72.997 40.0258H80.2738C81.0121 40.0258 81.5909 39.8459 82.0072 39.4859C82.4235 39.126 82.63 38.6319 82.63 38.0036C82.63 36.6325 81.5779 35.6557 79.477 35.0749L69.3577 32.2853C67.7398 31.8206 66.4812 31.0075 65.5803 29.8442C64.6794 28.6825 64.229 27.2755 64.229 25.6246C64.229 24.5791 64.4193 23.6204 64.8014 22.7483C65.1835 21.8762 65.7201 21.1383 66.4129 20.5346C67.1056 19.9309 67.9317 19.4597 68.8911 19.1226C69.8488 18.7856 70.9058 18.6171 72.062 18.6171H78.6119C79.9746 18.6171 81.1991 18.8085 82.2853 19.193C83.3715 19.5758 84.3017 20.1223 85.0757 20.8324C85.8497 21.5408 86.4449 22.4014 86.8612 23.4126C87.2774 24.4237 87.484 25.5461 87.484 26.7764V28.2064L82.2853 26.8468C82.2853 25.8013 81.9682 24.9587 81.3324 24.319C80.6966 23.6793 79.825 23.3602 78.716 23.3602H71.7855C71.0928 23.3602 70.5269 23.5467 70.0879 23.9181C69.6488 24.2895 69.4293 24.7673 69.4293 25.3481C69.4293 26.4181 70.1448 27.1495 71.5774 27.5454L82.0089 30.4741L82.0056 30.4725Z" fill="#183960"/>
<path d="M90.9463 20.7097C90.9463 20.0814 91.1365 19.5758 91.5187 19.193C91.9008 18.8101 92.4033 18.6171 93.0261 18.6171H114.58V23.3586H96.1449V28.5893H113.437V33.3308H96.1449V40.0258H114.58V44.7673H93.0602C92.4358 44.7673 91.9285 44.5694 91.5349 44.1751C91.1414 43.7808 90.9463 43.2686 90.9463 42.6404V20.7097Z" fill="#183960"/>
<path d="M61.1772 23.4028C61.1772 22.6272 60.5528 21.9973 59.7804 21.9973H59.6584H54.1492H54.0792C53.2792 21.9973 52.6304 22.6501 52.6304 23.4551V32.9299H54.1492V44.8802H59.6584V32.9299H61.1772V23.4028Z" fill="#F4BB3B"/>
<path d="M56.9057 20.0225C58.8001 20.0225 60.3368 18.4764 60.3368 16.5703C60.3368 14.6642 58.8001 13.118 56.9057 13.118C55.0113 13.118 53.4746 14.6642 53.4746 16.5703C53.4746 18.4764 55.0113 20.0225 56.9057 20.0225Z" fill="#F4BB3B"/>
</svg>
