<svg xmlns="http://www.w3.org/2000/svg" id="Layer_1" data-name="Layer 1" viewBox="0 0 925.8 547.06"><defs><style>
      .cls-1 {
        fill: #f4bb3b;
      }

      .cls-2 {
        fill: #183960;
      }
    </style></defs><path class="cls-2" d="M146.57,210.08h33.67l32.18,115.08,27.92-100.37c1.13-4.4,3.51-7.95,7.14-10.66,3.62-2.7,7.7-4.05,12.25-4.05h11.3c4.54,0,8.63,1.35,12.25,4.05,3.62,2.7,6,6.25,7.14,10.66l27.92,100.37,32.18-115.08h33.67l-41.77,145.13c-1.28,4.41-3.73,7.96-7.35,10.66-3.62,2.7-7.71,4.05-12.25,4.05h-8.95c-4.55,0-8.63-1.35-12.25-4.05-3.62-2.7-6-6.25-7.14-10.66l-29.19-103.78-28.98,103.78c-1.14,4.41-3.52,7.96-7.14,10.66-3.62,2.7-7.71,4.05-12.25,4.05h-8.95c-4.55,0-8.63-1.35-12.25-4.05-3.62-2.7-6.07-6.25-7.35-10.66l-41.77-145.13Z"></path><path class="cls-2" d="M578.9,282.53c12.07,3.27,21.06,8.74,26.96,16.41,5.89,7.67,8.84,16.84,8.84,27.49,0,6.68-1.14,12.68-3.41,18.01-2.27,5.33-5.54,9.88-9.8,13.64-4.26,3.77-9.34,6.68-15.24,8.74-5.9,2.06-12.47,3.09-19.71,3.09h-42.41c-17.47,0-30.94-4.33-40.38-13-9.45-8.66-14.17-20.96-14.17-36.87v-8.74h31.97v8.31c0,6.82,1.92,12.08,5.75,15.77,3.84,3.7,9.23,5.54,16.2,5.54h44.75c4.54,0,8.1-1.1,10.66-3.3,2.56-2.2,3.83-5.22,3.83-9.06,0-8.38-6.47-14.35-19.39-17.9l-62.23-17.05c-9.95-2.84-17.69-7.81-23.23-14.92-5.54-7.1-8.31-15.7-8.31-25.79,0-6.39,1.17-12.25,3.52-17.58,2.35-5.33,5.65-9.84,9.91-13.53,4.26-3.69,9.34-6.57,15.24-8.63,5.89-2.06,12.39-3.09,19.5-3.09h40.28c8.38,0,15.91,1.17,22.59,3.52,6.68,2.34,12.4,5.68,17.16,10.02,4.76,4.33,8.42,9.59,10.98,15.77,2.56,6.18,3.83,13.04,3.83,20.56v8.74l-31.97-8.31c0-6.39-1.95-11.54-5.86-15.45-3.91-3.91-9.27-5.86-16.09-5.86h-42.62c-4.26,0-7.74,1.14-10.44,3.41-2.7,2.27-4.05,5.19-4.05,8.74,0,6.54,4.4,11.01,13.21,13.43l64.15,17.9Z"></path><path class="cls-2" d="M633.88,222.86c0-3.84,1.17-6.93,3.52-9.27,2.35-2.34,5.44-3.52,9.27-3.52h132.55v28.98h-113.37v31.97h106.34v28.98h-106.34v40.92h113.37v28.98h-132.34c-3.84,0-6.96-1.21-9.38-3.62-2.42-2.41-3.62-5.54-3.62-9.38V222.86Z"></path><g><path class="cls-1" d="M450.81,239.32c0-4.74-3.84-8.59-8.59-8.59h-.75s-33.88,0-33.88,0h0s-.43,0-.43,0c-4.92,0-8.91,3.99-8.91,8.91v57.91h9.34v73.04h33.88v-73.04h9.34v-58.23Z"></path><path class="cls-1" d="M424.54,218.66c11.65,0,21.1-9.45,21.1-21.1s-9.45-21.1-21.1-21.1-21.1,9.45-21.1,21.1,9.45,21.1,21.1,21.1Z"></path></g></svg>