<svg width="64" height="42" viewBox="0 0 64 42" fill="none" xmlns="http://www.w3.org/2000/svg">
<path d="M30.9766 4.6875C31.0825 4.83614 31.0299 4.76141 30.9766 4.6875Z" fill="#00A987"/>
<path d="M30.9773 4.68725C30.9239 4.61334 30.8714 4.53861 30.9773 4.68725Z" fill="#00A987"/>
<path d="M60.9714 10.6969C57.069 16.2794 50.3484 19.0534 42.7499 17.1572C37.6757 15.8803 34.3022 11.9139 35.2146 8.07399C36.0982 4.40078 40.0005 2.33548 45.1913 3.75697C48.5212 4.68081 51.8027 7.19285 54.8025 11.1995C56.4236 10.0867 57.7005 8.50101 58.6236 6.63033C55.4874 2.59744 50.5923 0 45.0878 0C35.8535 0 28.328 7.30289 27.9634 16.4477C26.3966 15.5189 24.4241 15.0402 22.0623 15.1872L23.2145 13.7805L30.9772 4.68985C24.3617 8.43696 18.9845 -0.235684 10.7216 3.16078L3.48853 12.1594C7.41549 10.0802 12.7648 10.5762 17.0095 12.3261C17.7396 12.6275 18.4638 12.9059 19.1849 13.1399C17.0038 15.4032 14.5254 18.1197 12.0528 21.1285C11.9748 21.1967 11.8959 21.2657 11.8179 21.3338C15.8804 19.9074 20.7714 21.8873 19.9453 27.7851C18.3817 38.9542 9.52314e-05 41.0343 6.86282 25.8603C5.33212 24.5603 3.0648 23.8582 0.756416 24.6728C-0.624834 27.9313 0.0477236 30.9591 1.47168 33.4982C7.19048 44.5104 25.6657 41.9992 30.7966 31.9355C31.396 30.7603 31.8247 29.5409 32.0981 28.3206C35.2417 31.9708 39.8938 34.2849 45.0886 34.2849C54.5562 34.2849 62.2303 26.61 62.2303 17.1433C62.2303 14.8628 61.7811 12.6891 60.973 10.6994L60.9714 10.6969Z" fill="#00A987"/>
<path d="M32.0167 37.2907L31.1035 35.7305H31.6701L32.2901 36.8711L32.8945 35.7305H33.3955L32.5324 37.2948V38.4848H32.0167V37.2907Z" fill="#00A987"/>
<path d="M33.7734 35.7305H35.4955V36.1345H34.2859V36.89H35.2565V37.2751H34.2859V38.0807H35.5604V38.4848H33.7734V35.7305Z" fill="#00A987"/>
<path d="M36.7283 35.7305H37.3984L38.3075 38.4848H37.7762L37.5569 37.8032H36.505L36.2898 38.4848H35.8086L36.7292 35.7305H36.7283ZM36.624 37.4295H37.437L37.033 36.1509L36.6249 37.4295H36.624Z" fill="#00A987"/>
<path d="M38.7266 35.7305H39.6512C40.2556 35.7305 40.6794 35.9768 40.6794 36.5402V36.5558C40.6794 36.9869 40.4092 37.207 40.0668 37.2957L40.8411 38.4856H40.2868L39.5666 37.372H39.239V38.4856H38.7266V35.7313V35.7305ZM39.6504 37.0058C39.9937 37.0058 40.1743 36.8588 40.1743 36.5664V36.5508C40.1743 36.2355 39.9781 36.1271 39.6504 36.1271H39.2382V37.0058H39.6504Z" fill="#00A987"/>
<path d="M41.0371 37.6292H41.5298C41.5643 37.9068 41.676 38.1375 42.1424 38.1375C42.4463 38.1375 42.6623 37.9676 42.6623 37.7138C42.6623 37.4601 42.535 37.3632 42.0882 37.2901C41.4296 37.2014 41.1176 37.001 41.1176 36.4845C41.1176 36.0336 41.5027 35.6953 42.0767 35.6953C42.6508 35.6953 43.0244 35.9647 43.0786 36.4919H42.6089C42.5588 36.2036 42.3929 36.0796 42.0776 36.0796C41.7622 36.0796 41.6037 36.2299 41.6037 36.4418C41.6037 36.6651 41.6957 36.7768 42.1736 36.8458C42.8207 36.9345 43.1558 37.1193 43.1558 37.6695C43.1558 38.1474 42.7509 38.521 42.1424 38.521C41.391 38.521 41.0757 38.1474 41.0371 37.6276V37.6292Z" fill="#00A987"/>
<path d="M44.4258 37.1283V37.0979C44.4258 36.2923 45.0039 35.6953 45.8202 35.6953C46.6364 35.6953 47.2072 36.2767 47.2072 37.0856V37.116C47.2072 37.9216 46.6561 38.526 45.8202 38.526C44.9842 38.526 44.4258 37.9216 44.4258 37.1275V37.1283ZM46.6759 37.1209V37.0905C46.6759 36.5239 46.3605 36.1043 45.821 36.1043C45.2815 36.1043 44.962 36.5009 44.962 37.0938V37.1242C44.962 37.7253 45.3283 38.1145 45.8284 38.1145C46.3285 38.1145 46.6759 37.7179 46.6759 37.1209Z" fill="#00A987"/>
<path d="M47.6973 35.7313H49.4037V36.1394H48.2097V36.9598H49.15V37.3564H48.2097V38.4848H47.6973V35.7305V35.7313Z" fill="#00A987"/>
<path d="M31.3691 39.2031H31.8849V41.9574H31.3691V39.2031Z" fill="#00A987"/>
<path d="M32.5352 39.2031H33.2209L33.9451 41.0828L34.6538 39.2031H35.3321V41.9574H34.8197V39.8773L33.9993 41.9574H33.8335L32.9975 39.8773V41.9574H32.5352V39.2031Z" fill="#00A987"/>
<path d="M35.959 39.2031H36.8451C37.4609 39.2031 37.8658 39.4766 37.8658 40.0547V40.0703C37.8658 40.6517 37.4462 40.9104 36.8565 40.9104H36.4714V41.9582H35.959V39.2039V39.2031ZM36.8451 40.54C37.1842 40.54 37.3649 40.3742 37.3649 40.0703V40.0547C37.3649 39.7271 37.1727 39.5998 36.8451 39.5998H36.4714V40.54H36.8451Z" fill="#00A987"/>
<path d="M38.8182 39.2031H39.4883L40.3973 41.9574H39.866L39.6468 41.2758H38.5956L38.3797 41.9574H37.8984L38.819 39.2031H38.8182ZM38.7147 40.9022H39.5269L39.1228 39.6236L38.7147 40.9022Z" fill="#00A987"/>
<path d="M40.5273 40.6003V40.5699C40.5273 39.7414 41.0973 39.1641 41.8643 39.1641C42.4966 39.1641 42.9852 39.4794 43.0468 40.1273H42.527C42.4686 39.7611 42.265 39.5722 41.8684 39.5722C41.383 39.5722 41.0669 39.9499 41.0669 40.5658V40.5962C41.0669 41.2162 41.3633 41.5825 41.8716 41.5825C42.2527 41.5825 42.5228 41.3903 42.5762 41.0011H43.0772C42.9967 41.663 42.5261 41.998 41.8716 41.998C41.0094 41.998 40.5273 41.447 40.5273 40.5995V40.6003Z" fill="#00A987"/>
<path d="M44.0287 39.6111H43.2617V39.207H45.3114V39.6111H44.5452V41.9613H44.0295V39.6111H44.0287Z" fill="#00A987"/>
<path d="M46.6367 39.2031H47.623C48.1888 39.2031 48.5238 39.4191 48.5238 39.92V39.9356C48.5238 40.2091 48.4006 40.4251 48.0886 40.522C48.4622 40.6024 48.6396 40.8069 48.6396 41.1732V41.1888C48.6396 41.7004 48.3005 41.9591 47.6961 41.9591H46.6367V39.2048V39.2031ZM47.5614 40.3635C47.9005 40.3635 48.0311 40.2395 48.0311 39.9586V39.943C48.0311 39.6811 47.8808 39.5694 47.5532 39.5694H47.1376V40.3635H47.5614ZM47.6345 41.592C47.9777 41.592 48.1354 41.4376 48.1354 41.1526V41.137C48.1354 40.8521 47.9777 40.71 47.6008 40.71H47.1385V41.592H47.6353H47.6345Z" fill="#00A987"/>
<path d="M49.7877 39.2031H50.4578L51.3669 41.9574H50.8356L50.6163 41.2758H49.5644L49.3484 41.9574H48.8672L49.7877 39.2031ZM49.6835 40.9022H50.4964L50.0924 39.6236L49.6843 40.9022H49.6835Z" fill="#00A987"/>
<path d="M51.7832 39.2031H52.3958L53.5553 41.1945V39.2031H54.021V41.9574H53.4896L52.2496 39.8461V41.9574H51.784V39.2031H51.7832Z" fill="#00A987"/>
<path d="M54.6504 39.2031H55.1628V40.4513L56.2181 39.2031H56.7691L55.6293 40.517L56.8266 41.9574H56.2222L55.1628 40.6714V41.9574H54.6504V39.2031Z" fill="#00A987"/>
<path d="M57.2012 39.2031H57.7177V41.9574H57.2012V39.2031Z" fill="#00A987"/>
<path d="M58.3672 39.2031H58.9798L60.1393 41.1945V39.2031H60.6049V41.9574H60.0736L58.8336 39.8461V41.9574H58.368V39.2031H58.3672Z" fill="#00A987"/>
<path d="M61.0938 40.6003V40.5699C61.0938 39.7496 61.6637 39.1641 62.4684 39.1641C63.058 39.1641 63.582 39.4334 63.6542 40.092H63.1426C63.081 39.7258 62.8347 39.5681 62.4758 39.5681C61.9363 39.5681 61.6242 39.968 61.6242 40.5732V40.6036C61.6242 41.1932 61.8977 41.5981 62.4758 41.5981C62.9923 41.5981 63.2042 41.286 63.219 40.905H62.5259V40.5199H63.724V40.7744C63.724 41.5373 63.2461 41.9996 62.4684 41.9996C61.5865 41.9996 61.0938 41.4141 61.0938 40.6012V40.6003Z" fill="#00A987"/>
<path d="M28.4547 26.2092C28.4342 26.0713 28.4219 25.8963 28.4219 25.6927V22.458C28.4219 21.9817 28.288 21.6204 28.0154 21.3592C27.7427 21.103 27.3609 20.9281 26.8641 20.8304C26.3681 20.7376 25.7333 20.6875 24.9638 20.6875C23.8371 20.6875 22.9659 20.8304 22.3516 21.1112C21.7661 21.3839 21.445 21.8561 21.3957 22.5311H23.5161C23.5768 22.3315 23.7156 22.1936 23.939 22.1C24.1911 21.9981 24.5573 21.9489 25.0377 21.9489C25.5181 21.9489 25.8515 21.9891 26.0634 22.0745C26.2794 22.1599 26.3804 22.2905 26.3804 22.4646C26.3804 22.6075 26.3319 22.7134 26.2309 22.7824C26.1291 22.8513 25.9624 22.8957 25.7382 22.908L22.8616 23.1642C22.2834 23.2209 21.8277 23.3884 21.5025 23.6652C21.1732 23.946 21.0098 24.3812 21.0098 24.9709C21.0098 25.5933 21.2545 26.0581 21.7382 26.3628C22.2268 26.6724 22.8575 26.8227 23.6351 26.8227C25.0024 26.8227 25.9583 26.4851 26.511 25.8093V26.0006C26.511 26.1386 26.5233 26.2659 26.552 26.3751C26.5799 26.4843 26.621 26.5623 26.6694 26.6108H28.582V26.55C28.5212 26.4654 28.4769 26.3505 28.4564 26.2084M26.4773 24.1176C26.4773 24.6383 26.2531 25.0209 25.8105 25.2566C25.3662 25.4972 24.8291 25.6188 24.2026 25.6188C23.8166 25.6188 23.5276 25.5662 23.3362 25.4636C23.1449 25.3626 23.0513 25.1868 23.0513 24.9388C23.0513 24.7311 23.1202 24.5726 23.259 24.4625C23.4011 24.3607 23.613 24.2876 23.8979 24.2548L25.9484 24.0109C26.0453 23.9945 26.1439 23.9739 26.2449 23.9493C26.3426 23.9255 26.4206 23.8967 26.4773 23.8606V24.1168V24.1176Z" fill="white"/>
<path d="M35.1844 24.4057C35.1195 24.707 34.9561 24.9509 34.6957 25.1341C34.4354 25.318 34.0084 25.4108 33.4139 25.4108C32.7668 25.4108 32.2864 25.2679 31.9735 24.9879C31.6565 24.7079 31.5013 24.3014 31.5013 23.7717C31.5013 22.6688 32.1402 22.1203 33.4139 22.1203C34.0076 22.1203 34.4313 22.209 34.6916 22.3847C34.9479 22.5637 35.1113 22.7953 35.1844 23.0835H37.3737C37.2759 22.3346 36.9179 21.7491 36.311 21.3262C35.7009 20.9025 34.7368 20.6914 33.4147 20.6914C32.0926 20.6914 31.1079 20.9567 30.4477 21.4855C29.7891 22.0144 29.459 22.7756 29.459 23.7717C29.459 24.7678 29.7883 25.5053 30.4477 26.0341C31.1071 26.563 32.0958 26.8282 33.4147 26.8282C34.7335 26.8282 35.7132 26.6163 36.3316 26.1893C36.9458 25.7615 37.2998 25.1677 37.3819 24.4073H35.1844V24.4057Z" fill="white"/>
<path d="M45.3765 21.5528C44.7746 21.0273 43.9197 20.7669 42.8209 20.7669C41.8117 20.7669 41.0192 21.0478 40.4411 21.6136H40.3762V18.957H38.4316V26.6139H40.3442V25.9191H40.3968C40.9626 26.5252 41.7723 26.8257 42.8217 26.8257C43.8712 26.8257 44.7754 26.5654 45.3773 26.0407C45.9792 25.5151 46.2806 24.7662 46.2806 23.8029C46.2806 22.8396 45.9792 22.0776 45.3773 21.5528M42.3003 25.41C41.6614 25.41 41.1695 25.263 40.8312 24.9739C40.4945 24.6857 40.3229 24.2948 40.3229 23.8029C40.3229 23.311 40.4945 22.9078 40.8312 22.6228C41.1695 22.3379 41.6614 22.1909 42.3003 22.1909C42.9392 22.1909 43.4516 22.3289 43.7694 22.6015C44.0823 22.87 44.2375 23.2724 44.2375 23.8021C44.2375 24.8721 43.5945 25.4092 42.3003 25.4092" fill="white"/>
<path d="M54.4985 26.2092C54.478 26.0713 54.4698 25.8963 54.4698 25.6927V22.458C54.4698 21.9817 54.3326 21.6204 54.0592 21.3592C53.7906 21.103 53.4047 20.9281 52.9079 20.8304C52.4119 20.7376 51.7771 20.6875 51.0076 20.6875C49.8809 20.6875 49.0105 20.8304 48.3962 21.1112C47.8099 21.3839 47.4888 21.8561 47.4436 22.5311H49.5607C49.6214 22.3315 49.7643 22.1936 49.9828 22.1C50.2357 21.9981 50.6052 21.9489 51.0815 21.9489C51.5578 21.9489 51.8994 21.9891 52.1113 22.0745C52.3232 22.1599 52.4283 22.2905 52.4283 22.4646C52.4283 22.6075 52.3757 22.7134 52.2739 22.7824C52.1721 22.8513 52.0095 22.8957 51.7812 22.908L48.9045 23.1642C48.3272 23.2209 47.8706 23.3884 47.5455 23.6652C47.2162 23.946 47.0527 24.3812 47.0527 24.9709C47.0527 25.5933 47.2975 26.0581 47.782 26.3628C48.2697 26.6724 48.9004 26.8227 49.6781 26.8227C51.0454 26.8227 52.0054 26.4851 52.5547 25.8093V26.0006C52.5547 26.1386 52.5662 26.2659 52.595 26.3751C52.6237 26.4843 52.664 26.5623 52.7124 26.6108H54.625V26.55C54.5642 26.4654 54.5199 26.3505 54.4993 26.2084M52.5211 24.1176C52.5211 24.6383 52.2969 25.0209 51.8543 25.2566C51.41 25.4972 50.8738 25.6188 50.2464 25.6188C49.8604 25.6188 49.5713 25.5662 49.38 25.4636C49.1887 25.3626 49.095 25.1868 49.095 24.9388C49.095 24.7311 49.164 24.5726 49.3069 24.4625C49.4449 24.3607 49.6567 24.2876 49.9417 24.2548L51.9922 24.0109C52.0891 23.9945 52.1918 23.9739 52.2887 23.9493C52.3864 23.9255 52.4644 23.8967 52.5211 23.8606V24.1168V24.1176Z" fill="white"/>
</svg>
