<svg width="138" height="24" viewBox="0 0 138 24" fill="none" xmlns="http://www.w3.org/2000/svg">
<g clip-path="url(#clip0_2_142)">
<path fill-rule="evenodd" clip-rule="evenodd" d="M0.347244 10.4142V24.0037H24.0919V0.354492H10.4475C4.87619 0.354492 0.347244 4.86523 0.347244 10.4142Z" fill="#016197"/>
<path fill-rule="evenodd" clip-rule="evenodd" d="M7.78189 0H0V7.72912C0.981273 3.94511 3.97541 0.966587 7.78189 0Z" fill="#F69137"/>
<path fill-rule="evenodd" clip-rule="evenodd" d="M16.8501 9.16094C15.664 7.97955 14.0249 7.24566 12.2206 7.24566C10.4162 7.24566 8.77711 7.97955 7.59096 9.16094C6.4048 10.3423 5.66795 11.9748 5.66795 13.7719C5.66795 15.569 6.4048 17.2015 7.59096 18.3829C8.77711 19.5643 10.4162 20.2982 12.2206 20.2982C14.0249 20.2982 15.664 19.5643 16.8501 18.3829C18.0363 17.2015 18.7732 15.569 18.7732 13.7719C18.7732 11.9748 18.0363 10.3423 16.8501 9.16094ZM5.94113 18.0285C5.71468 17.6991 5.51339 17.3483 5.34086 16.9831L4.737 18.0285H5.94113ZM19.1038 16.9831C18.9313 17.3483 18.73 17.6955 18.5036 18.0249H19.7077L19.1038 16.9831ZM12.864 6.22179L12.2206 5.11201L11.5772 6.22179C11.7892 6.20389 12.0049 6.19315 12.2206 6.19315C12.4362 6.19315 12.6519 6.20031 12.864 6.22179ZM12.6806 3.79459L14.2298 6.46523C15.5202 6.81965 16.674 7.50342 17.5942 8.41989C18.9708 9.79101 19.8263 11.6848 19.8263 13.7719C19.8263 14.4342 19.74 15.0786 19.5783 15.6943L21.0844 18.2934L21.5444 19.0846H17.6337C17.6337 19.0846 17.6086 19.1096 17.5978 19.1204C16.2211 20.4915 14.3197 21.3435 12.2241 21.3435C10.1286 21.3435 8.22717 20.4915 6.85051 19.1204C6.83973 19.1096 6.82535 19.0953 6.81457 19.0846H2.90385L3.36394 18.2934L4.86999 15.6943C4.70825 15.0822 4.62198 14.4378 4.62198 13.7719C4.62198 11.6848 5.47745 9.79101 6.85411 8.41989C7.77427 7.50342 8.93167 6.81965 10.2221 6.46523L11.7713 3.79459L12.2313 3.00342L12.6914 3.79459H12.6806Z" fill="white"/>
<path fill-rule="evenodd" clip-rule="evenodd" d="M9.30179 16.7115C9.11488 16.1888 9.11129 15.3869 9.11129 14.8285V12.0146C9.11129 11.8786 9.09691 11.4526 9.01064 11.3559C8.93876 11.2736 8.75904 11.2593 8.65839 11.2593H8.06532V10.4215H11.6525V11.2593H11.0559C10.9265 11.2593 10.7647 11.2772 10.6856 11.3953C10.6137 11.5027 10.6066 11.8786 10.6066 12.0146V15.1507C10.6066 15.2903 10.6137 15.4335 10.6209 15.5731C10.6317 15.7378 10.6533 15.9025 10.6784 16.0636C10.7108 16.2962 10.7755 16.5826 10.9085 16.7795C11.0235 16.9478 11.1853 17.0731 11.365 17.1662C11.48 17.2199 11.5986 17.2557 11.7208 17.2843C11.8682 17.3165 12.0156 17.3309 12.1629 17.3309C12.5547 17.3309 12.9285 17.2521 13.2736 17.0659C13.5432 16.9227 13.7768 16.7223 13.899 16.4359C14.068 16.0421 14.0824 15.3583 14.0824 14.9287V12.0146C14.0824 11.9036 14.0716 11.4562 14.0141 11.381C13.9206 11.2772 13.7696 11.2557 13.6366 11.2557H13.0436V10.418H16.4223V11.2557H15.8292C15.6531 11.2557 15.5381 11.3201 15.441 11.4669C15.3907 11.5457 15.3835 11.9466 15.3835 12.054V14.9752C15.3835 15.5516 15.3476 16.2211 15.1535 16.7652C14.9738 17.2593 14.6179 17.6459 14.1866 17.9394C13.633 18.3153 12.9393 18.4299 12.2851 18.4299C11.631 18.4299 10.869 18.344 10.3118 17.9681C9.84814 17.6566 9.51745 17.2342 9.31617 16.7115" fill="white"/>
<path fill-rule="evenodd" clip-rule="evenodd" d="M137.641 19.6077L137.871 18.4191C137.583 18.3189 137.27 18.1578 136.943 17.943C136.616 17.7282 136.289 17.4812 135.958 17.1984C135.631 16.9155 135.326 16.6291 135.045 16.332L129.963 11.0623L136.803 5.33439V4.41792H131.908C131.879 4.49668 131.857 4.6005 131.846 4.71506C131.836 4.83319 131.829 4.94775 131.825 5.06231C131.825 5.17687 131.825 5.26637 131.825 5.33439L132.828 5.64584C132.932 5.67806 133.018 5.73534 133.083 5.82484C133.148 5.91076 133.18 6.01458 133.184 6.14346C133.184 6.24728 133.155 6.36541 133.094 6.49429C133.033 6.62317 132.918 6.75563 132.767 6.89167L128.08 11.1411V12.0361L133.956 18.2437C134.226 18.5301 134.549 18.7664 134.93 18.9597C135.315 19.153 135.736 19.3034 136.199 19.4072C136.659 19.5146 137.137 19.579 137.637 19.5969M125.632 19.1494H127.537V4.4215H123.773C123.752 4.50026 123.738 4.59334 123.73 4.70432C123.723 4.81171 123.72 4.91911 123.723 5.02293C123.723 5.12675 123.738 5.20909 123.752 5.27711L125.006 5.71386C125.154 5.77472 125.272 5.87138 125.366 6.011C125.456 6.15062 125.528 6.30813 125.567 6.48355C125.61 6.66255 125.632 6.83439 125.632 7.00623V19.153V19.1494ZM119.924 4.4215H116.452C116.423 4.50026 116.405 4.59334 116.394 4.70432C116.383 4.81171 116.376 4.91911 116.373 5.02293C116.373 5.12675 116.373 5.20909 116.373 5.27711L117.692 5.71386C117.843 5.76756 117.972 5.84274 118.091 5.94298C118.206 6.04322 118.296 6.18284 118.367 6.36183C118.432 6.53367 118.468 6.76637 118.468 7.04919V13.5504L118.677 15.7377H118.529L110.643 4.42508H106.416C106.394 4.50384 106.384 4.59692 106.377 4.7079C106.369 4.81529 106.369 4.92269 106.369 5.02651C106.369 5.13033 106.369 5.21267 106.369 5.28069L107.645 5.71744C107.771 5.76756 107.879 5.84632 107.969 5.9573C108.059 6.0647 108.131 6.19 108.177 6.33319C108.228 6.47639 108.249 6.62675 108.249 6.78069V19.1566H109.712V8.53129L109.525 6.86661H109.673L118.396 19.4072L119.924 19.1566V4.4215ZM99.6945 11.8392H95.4891L97.2036 7.48594L97.7284 5.9036H97.8758L98.3143 7.5289L99.6945 11.8427V11.8392ZM102.286 13.2353L98.9864 4.19238L97.2072 4.4215L92.0205 16.5683C92.0097 16.5933 91.9989 16.6184 91.9881 16.6399L90.917 19.1494H92.5704L93.6487 16.4501L94.9463 13.1924H100.133L101.136 16.2353L102.099 19.153H104.443L102.282 13.2353H102.286ZM87.5203 15.0253C87.5167 15.5945 87.4268 16.0599 87.2435 16.4215C87.0638 16.7831 86.8086 17.0659 86.4815 17.2628C86.1544 17.4561 85.7662 17.5921 85.3241 17.6709C84.8784 17.7461 84.3895 17.7819 83.8612 17.7783H81.5608L81.4781 13.5074V12.2365H83.0668C83.7785 12.233 84.4111 12.2688 84.9647 12.3368C85.5146 12.4084 85.9819 12.5444 86.3629 12.7377C86.7439 12.9346 87.0314 13.2174 87.2291 13.5898C87.4268 13.9585 87.5239 14.4382 87.5239 15.0289M86.4348 8.29859C86.4348 8.7246 86.388 9.1005 86.2874 9.42627C86.1903 9.74847 86.0214 10.0205 85.7878 10.2389C85.5541 10.4609 85.2378 10.6256 84.8353 10.7365C84.4327 10.8475 83.9367 10.9012 83.3364 10.9012H81.4745V5.71386H83.0848C83.5269 5.7067 83.9474 5.73176 84.35 5.78188C84.7454 5.83558 85.1048 5.94656 85.4175 6.11124C85.7303 6.28307 85.9747 6.54083 86.158 6.88809C86.3377 7.23534 86.4312 7.70432 86.4348 8.29501M89.6769 14.9645C89.6733 14.4239 89.5942 13.9585 89.4397 13.5611C89.2887 13.1673 89.0874 12.8344 88.8358 12.5659C88.5842 12.2938 88.3074 12.0754 88.0127 11.9108C87.7144 11.7389 87.4196 11.6136 87.1285 11.5205C86.8337 11.431 86.5714 11.3702 86.3305 11.3415V11.2807C86.7942 11.116 87.1932 10.8797 87.5382 10.5826C87.8761 10.2855 88.1421 9.92389 88.329 9.49787C88.5123 9.07544 88.6094 8.59214 88.6094 8.05157C88.6094 6.84871 88.196 5.94656 87.3657 5.33797C86.5354 4.72938 85.2846 4.42508 83.6132 4.42508H77.6321C77.5961 4.51458 77.571 4.61482 77.5566 4.71864C77.5386 4.81887 77.5278 4.91911 77.5242 5.01219C77.517 5.10527 77.5242 5.18045 77.5278 5.23773L79.095 5.7783C79.2064 5.82126 79.2999 5.8857 79.3754 5.9752C79.4472 6.06112 79.5047 6.16136 79.5407 6.27234C79.5802 6.38331 79.5982 6.49429 79.5982 6.60885V19.1494H84.2637C85.2414 19.1458 86.0717 19.042 86.7583 18.838C87.4484 18.6339 88.0055 18.3439 88.4404 17.968C88.8682 17.5957 89.1881 17.1518 89.3858 16.6435C89.5835 16.1351 89.6841 15.5695 89.6805 14.9609M73.5057 13.4645V4.4215H69.7423C69.7208 4.50026 69.7064 4.59334 69.6992 4.70432C69.692 4.81171 69.6884 4.91911 69.692 5.02293C69.692 5.12675 69.7064 5.20909 69.7208 5.27711L70.5583 5.58856C70.8422 5.6888 71.0615 5.82126 71.2089 5.9931C71.3634 6.16136 71.4677 6.35109 71.5216 6.56231C71.5755 6.77353 71.6042 6.98833 71.6007 7.21386V19.153H73.5057V13.4645ZM65.8532 4.4215H62.381C62.3522 4.50026 62.3343 4.59334 62.3235 4.70432C62.3127 4.81171 62.3055 4.91911 62.3019 5.02293C62.2983 5.12675 62.2983 5.20909 62.2983 5.27711L63.6175 5.71386C63.7684 5.76756 63.8943 5.84274 64.0165 5.94298C64.1315 6.04322 64.2213 6.18284 64.2932 6.36183C64.3579 6.53367 64.3939 6.76637 64.3939 7.04919V13.5504L64.6023 15.7377H64.455L56.5689 4.42508H52.3418C52.3203 4.50384 52.3095 4.59692 52.3023 4.7079C52.2951 4.81529 52.2951 4.92269 52.2951 5.02651C52.2951 5.13033 52.2951 5.21267 52.2951 5.28069L53.5711 5.71744C53.6969 5.76756 53.8048 5.84632 53.8946 5.9573C53.9845 6.0647 54.0564 6.19 54.1031 6.33319C54.1534 6.47639 54.175 6.62675 54.175 6.78069V13.4501L54.1318 19.1387L55.6379 19.1566V8.53129L55.451 6.86661H55.5984L64.322 19.4072L65.8496 19.1566V4.4215H65.8532ZM48.9307 4.4215H44.9985C44.9769 4.50026 44.9661 4.59334 44.9661 4.70432C44.9625 4.81171 44.9661 4.91911 44.9697 5.02293C44.9697 5.12675 44.9769 5.20909 44.9769 5.27711L45.8755 5.54918C46.1918 5.63868 46.4362 5.74966 46.6088 5.88928C46.7777 6.02532 46.8927 6.18284 46.9574 6.36183C47.0221 6.54083 47.0509 6.74489 47.0473 6.96685V13.5074C47.0473 14.338 46.9538 15.0396 46.7669 15.616C46.5836 16.1888 46.3176 16.6506 45.9761 16.9979C45.6383 17.3487 45.2285 17.5993 44.7612 17.7532C44.2904 17.9143 43.7692 17.9895 43.1977 17.9859C42.7304 17.9895 42.2703 17.9251 41.8174 17.7855C41.3609 17.6494 40.9476 17.431 40.5737 17.1232C40.1999 16.8189 39.9016 16.4072 39.6751 15.8988C39.4523 15.3833 39.3373 14.7568 39.3301 14.0086V6.30097C39.3301 6.30097 39.3301 6.26517 39.3301 6.25086V4.42508H35.3978C35.3762 4.50384 35.3583 4.59692 35.3475 4.7079C35.3331 4.81529 35.3259 4.92269 35.3187 5.02651C35.3151 5.13033 35.3115 5.21267 35.3115 5.28069L36.6307 5.71744C36.7565 5.76398 36.8643 5.83916 36.9542 5.95014C37.044 6.0647 37.1159 6.19358 37.1627 6.34393C37.2094 6.49429 37.2345 6.64465 37.2345 6.80217V14.1554C37.2345 15.0038 37.3496 15.727 37.5688 16.3356C37.7881 16.9442 38.09 17.4454 38.471 17.8463C38.8556 18.2473 39.2941 18.5659 39.7938 18.795C40.2898 19.0277 40.8182 19.1924 41.3825 19.289C41.9432 19.3821 42.5111 19.4322 43.0898 19.4287C43.6182 19.4287 44.1574 19.3678 44.7001 19.2425C45.2465 19.1136 45.7713 18.9096 46.2709 18.6303C46.7777 18.3475 47.227 17.9859 47.6224 17.5313C48.0178 17.0766 48.3341 16.5253 48.5677 15.8738C48.8013 15.2258 48.92 14.4633 48.9236 13.5969V4.4215H48.9307Z" fill="#016197"/>
<path d="M137.734 19.7294H137.634C137.127 19.7044 136.634 19.6399 136.174 19.5325C135.707 19.4287 135.269 19.2748 134.88 19.0743C134.492 18.881 134.151 18.6304 133.874 18.3368L127.965 12.097V11.1053L128.001 11.0695L132.684 6.82012C132.835 6.68408 132.932 6.56595 132.986 6.45497C133.04 6.34041 133.069 6.24375 133.065 6.15783C133.065 6.05043 133.036 5.96809 132.986 5.90365C132.939 5.83564 132.875 5.7891 132.792 5.76404L131.706 5.42394V5.33802C131.706 5.27 131.706 5.1805 131.706 5.06237C131.71 4.94423 131.717 4.82967 131.728 4.70795C131.739 4.58623 131.76 4.47525 131.793 4.38217L131.821 4.307H136.915V5.39172L130.129 11.0767L135.125 16.2605C135.409 16.5576 135.714 16.8476 136.031 17.1196C136.347 17.3917 136.674 17.6387 137.001 17.8535C137.321 18.0648 137.623 18.2187 137.903 18.3153L137.997 18.3476L137.731 19.7294H137.734ZM128.195 12.0003L134.043 18.1757C134.305 18.4514 134.622 18.6841 134.985 18.8667C135.358 19.0564 135.779 19.2032 136.228 19.3034C136.645 19.4001 137.087 19.4609 137.544 19.486L137.738 18.4908C137.468 18.3869 137.181 18.2366 136.879 18.0361C136.541 17.8142 136.207 17.56 135.883 17.2843C135.56 17.0087 135.251 16.7151 134.963 16.4108L129.794 11.0516L136.688 5.27716V4.52895H131.994C131.98 4.58623 131.969 4.65425 131.962 4.72227C131.951 4.83683 131.944 4.95139 131.94 5.06237C131.94 5.13396 131.94 5.19482 131.94 5.24494L132.864 5.53134C132.997 5.57072 133.101 5.6459 133.18 5.75688C133.256 5.85712 133.299 5.98241 133.302 6.13993C133.306 6.26165 133.274 6.39769 133.202 6.54447C133.133 6.6805 133.018 6.8237 132.849 6.97764L128.202 11.1948V11.9932L128.195 12.0003ZM43.0361 19.5361C42.4897 19.5361 41.9254 19.4896 41.3683 19.3965C40.7896 19.2963 40.2468 19.128 39.7472 18.8953C39.2404 18.6626 38.7839 18.3368 38.3921 17.9216C38.0003 17.5134 37.6876 16.9943 37.4647 16.3714C37.2419 15.7557 37.1269 15.0075 37.1233 14.1519V6.79864C37.1233 6.65544 37.1017 6.51225 37.055 6.37621C37.0118 6.24375 36.9471 6.12561 36.8645 6.01821C36.789 5.92513 36.6991 5.8607 36.5913 5.82132L35.1967 5.3595V5.27716C35.1967 5.22346 35.1967 5.15902 35.2003 5.08027V5.01941C35.211 4.90127 35.2182 4.79745 35.2326 4.69005C35.2434 4.58623 35.2614 4.48599 35.2829 4.39291L35.3045 4.307H39.4417V14.0051C39.4488 14.7318 39.5603 15.3511 39.7759 15.8488C39.9952 16.3428 40.2863 16.7402 40.6422 17.0301C40.998 17.3237 41.4006 17.5385 41.8463 17.671C42.2848 17.8034 42.7305 17.8679 43.1942 17.8679H43.2302C43.7801 17.8679 44.2797 17.7927 44.7218 17.6423C45.1783 17.4884 45.5701 17.2449 45.89 16.9156C46.2207 16.5827 46.4759 16.1316 46.6556 15.5767C46.8389 15.0111 46.9288 14.313 46.9288 13.5039V6.96332C46.9288 6.74494 46.9036 6.56237 46.8461 6.39769C46.7886 6.23659 46.688 6.09697 46.5334 5.97525C46.3753 5.84638 46.1488 5.74256 45.8397 5.65664L44.8584 5.3595V5.27358C44.8584 5.22704 44.8584 5.16976 44.8548 5.10175V5.02299C44.844 4.91917 44.844 4.80819 44.8476 4.69721C44.8476 4.58265 44.8584 4.47883 44.8836 4.38933L44.9051 4.30342H49.0423V13.5862C49.0387 14.4633 48.9165 15.2437 48.6793 15.9025C48.442 16.5648 48.115 17.134 47.7124 17.5958C47.3098 18.054 46.8461 18.4335 46.3285 18.7199C45.8145 19.0063 45.2754 19.2139 44.7254 19.3428C44.1539 19.4753 43.5932 19.5325 43.0289 19.5325M35.4303 5.19482L36.6668 5.60652C36.8141 5.66022 36.9435 5.74972 37.0442 5.87501C37.1448 6.00389 37.2203 6.14351 37.2742 6.30461C37.3281 6.46571 37.3533 6.63038 37.3533 6.79864V14.1519C37.3533 14.9788 37.4683 15.702 37.6804 16.2927C37.8961 16.8834 38.1908 17.3774 38.5574 17.764C38.9312 18.1543 39.3626 18.4657 39.8442 18.6877C40.3259 18.9132 40.8507 19.0779 41.4042 19.171C41.9721 19.2676 42.5508 19.3106 43.0936 19.307C43.6148 19.307 44.1467 19.2461 44.6787 19.1208C45.2071 18.9955 45.7247 18.7951 46.2207 18.523C46.7131 18.2473 47.1588 17.8858 47.5434 17.4454C47.928 17.0051 48.2372 16.4609 48.4672 15.8273C48.6937 15.1936 48.8123 14.4383 48.8159 13.5862V4.53611H45.0921C45.0849 4.58623 45.0813 4.64351 45.0813 4.70079C45.0777 4.80819 45.0813 4.91201 45.0813 5.01225V5.09458C45.0849 5.13038 45.0849 5.15902 45.0885 5.18766L45.908 5.43468C46.2459 5.53134 46.5011 5.64948 46.6808 5.79626C46.8677 5.94303 46.9971 6.11845 47.0654 6.31893C47.1337 6.50867 47.166 6.71988 47.1624 6.96332V13.5039C47.1624 14.338 47.0654 15.0576 46.8785 15.6447C46.688 16.2318 46.4112 16.7115 46.059 17.0731C45.7139 17.4311 45.2897 17.696 44.8009 17.8571C44.3229 18.0182 43.7945 18.097 43.1978 18.097C42.7197 18.0898 42.2417 18.0325 41.7852 17.8893C41.3107 17.7497 40.8794 17.517 40.502 17.2056C40.1174 16.8905 39.8047 16.4645 39.571 15.9383C39.341 15.412 39.2224 14.7605 39.2152 14.0051V4.53611H35.4914C35.4806 4.59339 35.4698 4.65067 35.4662 4.71511C35.4519 4.81893 35.4447 4.92275 35.4375 5.02299V5.09101C35.4339 5.13038 35.4303 5.16618 35.4303 5.1984M118.342 19.5254L118.299 19.4645L109.662 7.04566L109.827 8.50986V19.264H108.134V6.77716C108.134 6.63396 108.113 6.49435 108.066 6.36547C108.023 6.23659 107.958 6.12203 107.879 6.02537C107.8 5.92871 107.71 5.8607 107.602 5.81774L106.251 5.35592V5.27358C106.251 5.20914 106.251 5.1268 106.251 5.02299C106.251 4.90485 106.251 4.79745 106.258 4.69363C106.265 4.56117 106.28 4.46809 106.298 4.38933L106.319 4.30342H110.694L110.73 4.35353L118.533 15.548L118.342 13.554V7.04208C118.342 6.77716 118.31 6.55879 118.249 6.39411C118.184 6.23301 118.105 6.11129 118.005 6.02179C117.897 5.92871 117.778 5.86069 117.645 5.81416L116.251 5.35234V5.27C116.251 5.20198 116.251 5.11964 116.251 5.01225C116.254 4.90485 116.261 4.79387 116.272 4.68647C116.29 4.55401 116.308 4.45735 116.337 4.37859L116.362 4.30342H120.032V19.2461L118.335 19.5218L118.342 19.5254ZM109.4 6.74494H109.734L109.766 6.79506L118.447 19.2784L119.805 19.0564V4.53611H116.534C116.524 4.58623 116.513 4.64709 116.502 4.71869C116.491 4.81893 116.484 4.92633 116.481 5.02657C116.481 5.09101 116.481 5.1447 116.481 5.19482L117.721 5.60652C117.882 5.6638 118.023 5.74256 118.156 5.85712C118.285 5.97167 118.386 6.12203 118.465 6.31893C118.537 6.50867 118.573 6.7521 118.573 7.04924V13.5504L118.792 15.8523H118.457L118.422 15.8022L110.571 4.53969H106.499C106.492 4.58623 106.485 4.64351 106.481 4.71511C106.474 4.81535 106.474 4.91559 106.474 5.01225C106.474 5.08743 106.474 5.14828 106.474 5.1984L107.671 5.6101C107.818 5.66738 107.944 5.76046 108.048 5.88575C108.145 6.00031 108.224 6.13993 108.278 6.29745C108.332 6.45139 108.357 6.61607 108.357 6.78432V19.0457H109.59V8.53492L109.389 6.7521L109.4 6.74494ZM64.2718 19.5254L64.2323 19.4645L55.5949 7.04566L55.7603 8.50986V19.264L54.0242 19.2426L54.0673 13.4395V6.77C54.0673 6.6268 54.0457 6.48719 53.999 6.35831C53.9523 6.22943 53.8912 6.11487 53.8121 6.01821C53.733 5.92155 53.6432 5.85353 53.5353 5.81058L52.1838 5.34876V5.26642C52.1838 5.20198 52.1838 5.11964 52.1838 5.01583C52.1838 4.90485 52.1838 4.79745 52.191 4.68647C52.1982 4.55401 52.2126 4.46093 52.2305 4.38217L52.2521 4.29626H56.6265L56.6624 4.34638L64.4659 15.5409L64.2754 13.5469V7.03492C64.2754 6.77 64.2431 6.55163 64.1819 6.38695C64.1172 6.22585 64.0382 6.10413 63.9375 6.01463C63.8297 5.92155 63.7111 5.85353 63.5781 5.807L62.1835 5.34518V5.26284C62.1835 5.19482 62.1835 5.11248 62.187 5.00509C62.1906 4.89769 62.1978 4.78671 62.2086 4.67931C62.2266 4.54685 62.2446 4.45019 62.2733 4.37143L62.2985 4.29626H65.9684V19.239L64.2718 19.5146V19.5254ZM55.3253 6.74494H55.6596L55.692 6.79506L64.3724 19.2784L65.7311 19.0564V4.53611H62.4602C62.4494 4.58623 62.4387 4.64709 62.4279 4.71869C62.4171 4.82251 62.4099 4.92633 62.4063 5.02657C62.4063 5.09101 62.4063 5.1447 62.4063 5.19482L63.6464 5.60652C63.8081 5.66022 63.9483 5.74256 64.0813 5.85712C64.2107 5.97167 64.3113 6.12203 64.3904 6.31893C64.4623 6.50867 64.4983 6.7521 64.4983 7.04924V13.5504L64.7175 15.8523H64.3832L64.3473 15.8022L56.4971 4.53969H52.4246C52.4175 4.58623 52.4103 4.64351 52.4067 4.71511C52.3995 4.81893 52.3995 4.92633 52.3995 5.02657C52.3995 5.09101 52.3995 5.14828 52.3995 5.1984L53.5964 5.6101C53.7438 5.66738 53.8696 5.76046 53.9738 5.88575C54.0709 6.00031 54.15 6.13993 54.2039 6.29745C54.2578 6.45139 54.283 6.61249 54.283 6.78432V13.4538L54.2434 19.0278L55.5194 19.0421V8.53134L55.3181 6.74852L55.3253 6.74494ZM127.652 19.2676H125.517V7.00628C125.517 6.8416 125.495 6.67692 125.456 6.51225C125.42 6.35473 125.355 6.20795 125.269 6.07549C125.19 5.95377 125.089 5.87143 124.963 5.82132L123.651 5.36308L123.637 5.29864C123.619 5.21988 123.608 5.1268 123.608 5.02657C123.605 4.91917 123.608 4.80819 123.615 4.69721C123.623 4.58265 123.637 4.48241 123.659 4.39291L123.68 4.307H127.648V19.264L127.652 19.2676ZM125.747 19.0349H127.418V4.53611H123.86C123.849 4.58981 123.845 4.64709 123.842 4.71153C123.835 4.81535 123.831 4.91917 123.835 5.01941C123.835 5.08385 123.842 5.14112 123.849 5.19124L125.042 5.60652C125.219 5.67812 125.352 5.7891 125.459 5.95019C125.56 6.10771 125.636 6.27955 125.679 6.45855C125.725 6.63754 125.747 6.82012 125.747 7.00628V19.0385V19.0349ZM104.612 19.2676H102.02L100.054 13.3106H95.0291L92.6497 19.2676H90.7446L97.1283 4.31774L99.0621 4.06714L104.612 19.264V19.2676ZM102.186 19.0349H104.281L102.178 13.2712L98.9075 4.31774L97.2864 4.52537L91.0897 19.0349H92.4915L94.871 13.0779H100.219L102.186 19.0349ZM84.2603 19.2676H79.4797V6.6089C79.4797 6.50509 79.4618 6.40485 79.4294 6.30819C79.3971 6.20795 79.3468 6.12203 79.2821 6.04685C79.2209 5.97167 79.1455 5.91797 79.052 5.88217L77.4166 5.32012L77.4094 5.24852C77.3986 5.16976 77.3986 5.08743 77.4058 5.00151C77.4094 4.90485 77.4201 4.80103 77.4381 4.69721C77.4597 4.57907 77.4848 4.47167 77.5208 4.37859L77.5495 4.307H83.6097C85.2991 4.307 86.5859 4.62203 87.4342 5.24136C88.2932 5.86785 88.7246 6.81296 88.7246 8.04447C88.7246 8.59936 88.6239 9.10055 88.4334 9.53731C88.2393 9.97406 87.9625 10.35 87.6139 10.6614C87.3299 10.9084 87.0064 11.1125 86.6434 11.2736C86.8087 11.3058 86.9849 11.3523 87.1646 11.4096C87.4701 11.5027 87.7756 11.6387 88.074 11.807C88.3795 11.9788 88.667 12.2079 88.9222 12.4836C89.1846 12.7664 89.3931 13.1137 89.5477 13.5182C89.7058 13.9299 89.7885 14.4132 89.7921 14.9609C89.7921 15.5803 89.6915 16.1602 89.4866 16.6865C89.2817 17.2091 88.9546 17.671 88.5089 18.054C88.0668 18.4371 87.4881 18.7378 86.7872 18.9454C86.0934 19.1531 85.2416 19.2605 84.2603 19.264M79.7098 19.0349H84.2603C85.22 19.0313 86.0503 18.9275 86.7225 18.727C87.391 18.5266 87.9446 18.2438 88.3615 17.8822C88.7749 17.5242 89.084 17.0946 89.2745 16.6041C89.4686 16.1029 89.5656 15.5516 89.562 14.9609C89.5585 14.4418 89.483 13.9836 89.332 13.6006C89.1882 13.2247 88.9941 12.8989 88.7533 12.6411C88.5125 12.3798 88.2465 12.1686 87.9589 12.0075C87.675 11.8464 87.3838 11.7175 87.0963 11.628C86.8159 11.5421 86.5535 11.4812 86.3163 11.4526L86.2157 11.4383V11.1948L86.2911 11.1662C86.7369 11.0051 87.1322 10.7795 87.4593 10.4896C87.7864 10.2032 88.0416 9.85234 88.2213 9.44423C88.3975 9.03611 88.4909 8.56714 88.4945 8.04089C88.4945 6.88456 88.0919 6.00389 87.2976 5.42394C86.4924 4.83325 85.2488 4.53253 83.6097 4.53253H77.7113C77.6933 4.59339 77.6789 4.65783 77.6646 4.73301C77.6466 4.82609 77.6358 4.92275 77.6358 5.00867C77.6322 5.05879 77.6322 5.10175 77.6358 5.1447L79.1347 5.66022C79.2713 5.71034 79.3791 5.7891 79.4654 5.89291C79.5444 5.98957 79.6091 6.10055 79.6523 6.22585C79.6954 6.34757 79.7134 6.46929 79.7134 6.60175V19.0278L79.7098 19.0349ZM73.6209 19.2676H71.4858V7.21392C71.4858 6.99912 71.4642 6.79864 71.4103 6.59101C71.36 6.39769 71.2665 6.22943 71.1227 6.06833C70.9897 5.91439 70.7921 5.79268 70.5189 5.69602L69.6203 5.3595L69.6059 5.29864C69.5879 5.21988 69.5772 5.13038 69.5736 5.02657C69.57 4.91917 69.5736 4.80819 69.5807 4.69721C69.5879 4.58265 69.6023 4.48241 69.6275 4.39291L69.649 4.307H73.6173V19.264L73.6209 19.2676ZM71.7194 19.0349H73.3908V4.53611H69.8359C69.8252 4.58981 69.8216 4.64709 69.818 4.71153C69.8108 4.81535 69.8072 4.91917 69.8108 5.01941C69.8108 5.08385 69.818 5.14112 69.8252 5.19124L70.6016 5.48122C70.9107 5.5922 71.1407 5.7354 71.2989 5.91439C71.4678 6.10055 71.5792 6.30103 71.6367 6.53015C71.6979 6.75568 71.723 6.98122 71.7194 7.21392V19.0349ZM83.9332 17.8929C83.908 17.8929 83.8829 17.8929 83.8613 17.8929H81.4495L81.3632 13.5111V12.122H83.067C83.7679 12.1113 84.4149 12.1507 84.9792 12.2223C85.5399 12.2974 86.0252 12.4371 86.4169 12.6375C86.8195 12.8488 87.1286 13.1495 87.3299 13.5361C87.5348 13.9156 87.639 14.4168 87.639 15.0254C87.6355 15.6125 87.5384 16.0994 87.3515 16.4717C87.161 16.8547 86.8878 17.1519 86.5463 17.3595C86.2085 17.56 85.8059 17.7032 85.3494 17.7819C84.9253 17.8535 84.4508 17.8929 83.9368 17.8929M81.6723 17.6602H83.8613C84.3969 17.6638 84.8749 17.628 85.3063 17.5528C85.734 17.4776 86.1114 17.3488 86.4241 17.1626C86.7297 16.98 86.9741 16.7115 87.143 16.3714C87.312 16.0313 87.4018 15.5767 87.4054 15.0254C87.4054 14.4562 87.3084 13.9908 87.1214 13.6435C86.9381 13.2927 86.6721 13.0313 86.3055 12.8416C85.9389 12.6519 85.4788 12.523 84.9468 12.4514C84.3933 12.3834 83.7571 12.3511 83.067 12.3511H81.5933V13.5075L81.6759 17.6638L81.6723 17.6602ZM99.8528 11.9538H95.3203L97.0959 7.44303L97.6423 5.7891H97.9622L98.4258 7.50031L99.8528 11.9574V11.9538ZM95.6618 11.7247H99.5401L98.2066 7.56117L97.8004 6.05759L97.3188 7.51821L95.6618 11.7211V11.7247ZM83.3401 11.0158H81.3632V5.59936H83.0885C83.5234 5.5922 83.9548 5.61368 84.3681 5.67096C84.7815 5.72466 85.1517 5.83921 85.4752 6.01463C85.8023 6.19363 86.0683 6.46929 86.2624 6.83802C86.4529 7.20318 86.5463 7.67931 86.5499 8.29864C86.5499 8.7354 86.5032 9.12561 86.399 9.46213C86.2983 9.80222 86.1186 10.0922 85.8706 10.3249C85.6262 10.5576 85.2955 10.7294 84.8713 10.8476C84.4616 10.9621 83.9476 11.0194 83.3401 11.0194M81.5933 10.7867H83.3401C83.926 10.7867 84.4185 10.733 84.8067 10.6256C85.1948 10.5182 85.4932 10.3643 85.7088 10.1566C85.9281 9.949 86.0863 9.69482 86.1761 9.39411C86.2732 9.07907 86.3199 8.71392 86.3199 8.29864C86.3163 7.72585 86.2264 7.2712 86.0575 6.94542C85.8814 6.61248 85.6549 6.37263 85.3638 6.21511C85.0654 6.05401 84.7204 5.94661 84.3358 5.89649C83.9332 5.84637 83.5163 5.82132 83.0885 5.82848H81.5897V10.7867H81.5933Z" fill="#016197"/>
</g>
<defs>
<clipPath id="clip0_2_142">
<rect width="138" height="24" fill="white"/>
</clipPath>
</defs>
</svg>
